<!DOCTYPE svg PUBLIC "-//W3C//DTD SVG 1.1//EN" "http://www.w3.org/Graphics/SVG/1.1/DTD/svg11.dtd">
<!-- Uploaded to: SVG Repo, www.svgrepo.com, Transformed by: SVG Repo Mixer Tools -->
<svg fill="#9ca3af" width="800px" height="800px" viewBox="0 0 256 256" id="Flat" xmlns="http://www.w3.org/2000/svg">
<g id="SVGRepo_bgCarrier" stroke-width="0"/>
<g id="SVGRepo_tracerCarrier" stroke-linecap="round" stroke-linejoin="round"/>
<g id="SVGRepo_iconCarrier"> <path d="M216,40H40A16.01833,16.01833,0,0,0,24,56V200a16.01833,16.01833,0,0,0,16,16H216a16.01833,16.01833,0,0,0,16-16V56A16.01833,16.01833,0,0,0,216,40ZM180,168H76a8,8,0,0,1,0-16H180a8,8,0,0,1,0,16Zm0-32H76a8,8,0,0,1,0-16H180a8,8,0,0,1,0,16Zm0-32H76a8,8,0,0,1,0-16H180a8,8,0,0,1,0,16Z"/> </g>
</svg>