<?xml version="1.0" encoding="UTF-8" standalone="no"?>
<!-- Generator: visioncortex VTracer 0.6.3 -->

<svg
   version="1.1"
   width="250"
   height="250"
   id="svg16"
   sodipodi:docname="ezgif-1-24ad074578.svg"
   xmlns:inkscape="http://www.inkscape.org/namespaces/inkscape"
   xmlns:sodipodi="http://sodipodi.sourceforge.net/DTD/sodipodi-0.dtd"
   xmlns="http://www.w3.org/2000/svg"
   xmlns:svg="http://www.w3.org/2000/svg">
  <defs
     id="defs20" />
  <sodipodi:namedview
     id="namedview18"
     pagecolor="#ffffff"
     bordercolor="#000000"
     borderopacity="0.25"
     inkscape:showpageshadow="2"
     inkscape:pageopacity="0.0"
     inkscape:pagecheckerboard="0"
     inkscape:deskcolor="#d1d1d1" />
  <path
     d="m 86.283281,163.04915 c -1.9,-0.91 -3.76,-1.89 -5.59,-2.92 -1.08,-0.61 -2.16,-1.22 -3.28,-1.84 -1.17,-0.66 -2.34,-1.33 -3.51,-1.99 -1.2,-0.68 -2.41,-1.36 -3.63,-2.04 -3.08,-1.73 -6.15,-3.47 -9.22,-5.21 -3.69,-2.09 -7.38,-4.17 -11.08,-6.25 -1.9,-1.08 -3.81,-2.16 -5.71,-3.25 -4.23,-2.42 -8.47,-4.78 -12.82,-6.96 -11.64,-5.91 -11.64,-5.91 -14.1,-11.85 -0.65,-2.43 -0.65,-2.43 -1.06,-4.69 -0.25,-0.93 -0.25,-0.93 -0.51,-1.87 -3.1,-13.49 -0.3,-27.509999 6.26,-39.379999 7,-10.92 16.67,-17.83 29.12,-21.3 2.13,-0.45 2.13,-0.45 5.13,-0.45 -0.03,0.83 -0.07,1.65 -0.1,2.5 -0.31,7.83 -0.51,15.65 -0.6,23.48 -0.05,4.02 -0.13,8.04 -0.31,12.06 -1.4,17.069999 -1.4,17.069999 3.94,32.519999 4.9,4.15 10.44,6.42 16.46,8.5 3.59,1.29 6.61,3.07 9.88,5.03 2.04,1.14 4.07,2.28 6.11,3.41 6.22,3.47 12.439999,6.95 18.619999,10.5 0,0.66 0,1.32 0,2 -2.88,2.17 -6.07,3.88 -9.19,5.69 -0.86,0.52 -1.729999,1.05 -2.619999,1.59 -0.84,0.49 -1.68,0.98 -2.55,1.48 -0.77,0.46 -1.54,0.91 -2.33,1.38 -2.95,1.1 -4.33,0.82 -7.31,-0.14 z"
     fill="#9ba2ae"
     id="path2" />
  <path
     d="m 182.28328,184.04915 c 0.04,-0.82 0.09,-1.64 0.13,-2.49 0.39,-7.79 0.65,-15.58 0.77,-23.38 0.07,-4.02 0.19,-8.01 0.41,-12.02 1.54,-17.41 1.54,-17.41 -4.66,-32.87 -5.96,-4.69 -12.6,-7.52 -19.67,-10.11 -3.72,-1.41 -6.88,-3.179999 -10.28,-5.239999 -0.93,-0.52 -1.87,-1.05 -2.83,-1.6 -1.3,-0.73 -1.3,-0.73 -2.62,-1.48 -1.41,-0.8 -1.41,-0.8 -2.86,-1.61 -0.9,-0.51 -1.81,-1.03 -2.75,-1.56 -0.78,-0.44 -1.56,-0.88 -2.36,-1.33 -0.75,-0.43 -1.5,-0.86 -2.28,-1.31 -0.92,-0.51 -1.84,-1.02 -2.79,-1.54 -0.73,-0.48 -1.46,-0.96 -2.21,-1.46 0,-0.66 0,-1.32 0,-2 2.88,-2.17 6.07,-3.88 9.19,-5.69 0.86,-0.52 1.73,-1.05 2.62,-1.59 0.84,-0.49 1.68,-0.98 2.55,-1.48 0.77,-0.46 1.54,-0.91 2.33,-1.38 2.92,-1.09 4.35,-0.8 7.31,0.14 2.28,1.08 2.28,1.08 4.64,2.45 1.34,0.77 1.34,0.77 2.71,1.55 0.95,0.56 1.91,1.11 2.9,1.69 2.07,1.19 4.14,2.37 6.21,3.56 1.62,0.93 1.62,0.93 3.26,1.87 4.29,2.46 8.6,4.88 12.92,7.29 2.11,1.18 4.22,2.37 6.32,3.56 4.78,2.69 9.57,5.329999 14.48,7.779999 13.16,6.68 13.16,6.68 15.62,12.56 0.6,2.37 0.6,2.37 0.94,4.69 0.18,0.75 0.36,1.49 0.54,2.26 2.56,15.2 0.04,29.52 -8.69,42.3 -7.43,9.79 -18.94,18.44 -31.85,18.44 z"
     fill="#9ca3af"
     id="path4" />
  <path
     d="m 62.345781,205.42415 c -13.69,-4.99 -23.59,-13.38 -30.62,-26.19 -5.81,-12.84 -5.19,-24 -1.44,-37.19 3.31,0.68 5.94,1.91 8.9,3.52 0.96,0.53 1.93,1.05 2.92,1.59 1.54,0.84 1.54,0.84 3.12,1.71 1.06,0.58 2.12,1.16 3.21,1.75 8.8,4.82 17.53,9.77 26.22,14.78 0.77,0.44 1.53,0.87 2.32,1.32 1.59,0.92 3.16,1.86 4.73,2.82 0.78,0.47 1.56,0.94 2.36,1.42 0.69,0.43 1.38,0.85 2.1,1.29 2.85,1.08 4.22,0.74 7.12,-0.2 2.14,-1.09 4.24,-2.27 6.3,-3.5 0.599999,-0.35 1.199999,-0.7 1.809999,-1.06 1.93,-1.14 3.84,-2.29 5.76,-3.44 1.32,-0.78 2.64,-1.56 3.96,-2.34 3.17,-1.88 6.34,-3.77 9.51,-5.66 1.46,-0.88 2.93,-1.76 4.4,-2.63 7.54,-4.49 7.54,-4.49 15.01,-9.09 2.25,-1.28 2.25,-1.28 4.25,-1.28 2.47,19.88 2.47,19.88 -1.11,25.85 -3.39,3.25 -7.78,4.94 -12.04,6.81 -5.27,2.49 -10.22,5.6 -15.21,8.59 -3.13,1.87 -6.28,3.7 -9.43,5.53 -7.169999,4.18 -14.289999,8.44 -21.399999,12.73 -1.12,0.68 -1.12,0.68 -2.26,1.37 -0.97,0.58 -0.97,0.58 -1.95,1.18 -5.96,3.52 -12.21,2.29 -18.54,0.32 z"
     fill="#9ca3af"
     id="path6" />
  <path
     d="m 208.28328,95.049151 c -3.69,-0.58 -6.41,-1.58 -9.64,-3.45 -1.34,-0.77 -1.34,-0.77 -2.71,-1.55 -0.96,-0.56 -1.91,-1.11 -2.9,-1.69 -2.05,-1.18 -4.11,-2.35 -6.16,-3.53 -1.08,-0.62 -2.15,-1.24 -3.25,-1.87 -5.63,-3.22 -11.3,-6.38 -16.96,-9.53 -2.08,-1.16 -4.16,-2.32 -6.23,-3.48 -0.88,-0.49 -1.75,-0.98 -2.65,-1.48 -2.5,-1.42 -2.5,-1.42 -5.01,-3.16 -2.39,-1.46 -2.39,-1.46 -4.92,-1.16 -3.16,1.11 -5.82,2.59 -8.7,4.29 -0.58,0.35 -1.17,0.69 -1.77,1.05 -1.89,1.12 -3.78,2.24 -5.66,3.37 -1.3,0.77 -2.61,1.54 -3.91,2.31 -5.96,3.53 -11.89,7.09 -17.82,10.68 -0.92,0.55 -1.84,1.11 -2.79,1.69 -1.71,1.03 -3.41,2.06 -5.1,3.1 -0.75,0.46 -1.5,0.91 -2.269999,1.38 -0.96,0.59 -0.96,0.59 -1.95,1.2 -1.6,0.83 -1.6,0.83 -3.6,0.83 -0.38,-3.83 -0.61,-7.66 -0.81,-11.5 -0.11,-1.08 -0.22,-2.16 -0.33,-3.27 -0.14,-3.47 -0.02,-5.95 1.14,-9.23 3.36,-3.11 7.079999,-5.08 11.149999,-7.07 2.95,-1.48 5.75,-3.21 8.58,-4.9 2.96,-1.73 5.93,-3.46 8.89,-5.18 6.89,-4 13.75,-8.05 20.5,-12.29 1.12,-0.69 2.24,-1.39 3.39,-2.1 2.11,-1.32 4.2,-2.64 6.28,-3.99 7.28,-4.51 12.01,-5.52 20.33,-3.84 15.4,5.21 26.22,14.04 33.88,28.37 4.67,10.95 4.72,22.55 2,34 -0.33,0.66 -0.66,1.32 -1,2 z"
     fill="#9ca3af"
     id="path8" />
  <path
     d="m 102.28328,215.04915 c -2.519999,-2.19 -4.809999,-4.48 -6.999999,-7 1.33,-3.99 2.95,-4.42 6.559999,-6.48 0.58,-0.34 1.15,-0.67 1.75,-1.01 1.24,-0.72 2.49,-1.44 3.73,-2.15 2.64,-1.49 5.26,-3.01 7.88,-4.53 1.34,-0.78 2.69,-1.56 4.04,-2.33 6.78,-3.92 13.51,-7.91 20.23,-11.94 1.06,-0.63 2.12,-1.26 3.21,-1.91 0.98,-0.59 1.95,-1.17 2.96,-1.77 1.27,-0.77 1.27,-0.77 2.58,-1.55 2.17,-1.3 2.17,-1.3 4.06,-3.33 0.29,-2.67 0.29,-2.67 0.23,-5.83 0,-1.22 0,-2.44 0,-3.7 -0.01,-1.33 -0.02,-2.67 -0.03,-4.01 -0.01,-1.36 -0.01,-2.73 -0.01,-4.09 -0.01,-3.6 -0.03,-7.19 -0.05,-10.78 -0.02,-3.67 -0.03,-7.34 -0.04,-11 -0.02,-7.2 -0.06,-14.39 -0.1,-21.59 2.92,0.69 5.24,1.54 7.86,3.03 0.7,0.4 1.4,0.8 2.13,1.21 0.73,0.41 1.45,0.83 2.2,1.26 0.73,0.42 1.47,0.83 2.23,1.26 5.43,3.09 5.43,3.09 6.58,4.24 0.13,2.51 0.2,5 0.22,7.51 0.02,0.79 0.03,1.58 0.04,2.39 0.11,8.26 0.16,16.51 0.2,24.77 0.02,3.92 0.06,7.83 0.12,11.75 0.07,4.73 0.11,9.45 0.12,14.18 0.01,1.8 0.04,3.6 0.07,5.4 0.29,15.85 0.29,15.85 -4.08,20.97 -1.82,1.63 -1.82,1.63 -3.69,3.03 -0.65,0.56 -1.31,1.12 -1.98,1.69 -17.8,15.02 -43.1,15 -62.02,2.31 z"
     fill="#9ca3af"
     id="path10" />
  <path
     d="m 86.283281,127.04915 c -3.92,-0.78 -5.76,-1.2 -8.99,-3.07 -1.06,-0.6 -1.06,-0.6 -2.14,-1.22 -0.72,-0.42 -1.44,-0.84 -2.18,-1.27 -1.11,-0.64 -1.11,-0.64 -2.25,-1.29 -1.81,-1.04 -3.63,-2.1 -5.44,-3.15 -0.21,-10.8 -0.37,-21.589999 -0.47,-32.389999 -0.04,-5.02 -0.11,-10.03 -0.21,-15.04 -0.1,-4.85 -0.15,-9.69 -0.17,-14.53 -0.02,-1.85 -0.05,-3.69 -0.1,-5.53 -0.37,-14.37 -0.37,-14.37 2.84,-19.58 2.26,-2.32 4.43,-4.13 7.11,-5.93 0.85,-0.59 1.7,-1.18 2.58,-1.79 12.15,-8.07 26.459999,-11.29 40.839999,-8.56 9.58,2.68 19.23,7.46 25.58,15.35 0,0.99 0,1.98 0,3 -0.58,0.33 -1.16,0.65 -1.76,0.99 -12.84,7.2 -25.6,14.52 -38.26,22.04 -0.82,0.48 -1.63,0.97 -2.47,1.47 -1.769999,1.06 -3.539999,2.13 -5.299999,3.21 -0.9,0.55 -1.8,1.1 -2.72,1.67 -0.81,0.5 -1.63,1 -2.47,1.52 -2.02,1.1 -2.02,1.1 -4.02,1.1 0,20.79 0,41.579999 0,62.999999 z"
     fill="#9ca3af"
     id="path12" />
  <path
     d="m 106.28328,140.04915 c -1.02,-0.59 -2.04,-1.18 -3.09,-1.79 -6.479999,-3.78 -6.479999,-3.78 -7.909999,-5.21 -0.61,-4.54 -0.84,-9.11 -1.12,-13.69 -0.12,-1.28 -0.24,-2.56 -0.36,-3.88 -0.52,-9.25 -0.52,-9.25 2.24,-12.51 2.35,-1.57 4.669999,-2.75 7.239999,-3.919999 1.25,-0.77 2.5,-1.56 3.73,-2.37 1.15,-0.69 2.3,-1.38 3.46,-2.07 0.57,-0.36 1.15,-0.72 1.75,-1.1 2.69,-1.59 4.73,-2.45 7.87,-2.53 4.71,1.58 8.76,4.02 13,6.57 1.31,0.77 1.31,0.77 2.64,1.55 6.35,3.749999 6.35,3.749999 7.55,4.949999 3.19,23.86 3.19,23.86 -1.35,31.17 -3.44,3.17 -7.46,4.71 -11.86,6.15 -2.41,0.92 -3.98,2.44 -5.85,4.18 -5.68,3.63 -12.97,-2.46 -17.94,-5.5 z"
     fill="#9ba2ae"
     id="path14" />
</svg>
